# xmcd
#
# Track frame offsets: 
#        150
#        6528
#        15042
#        24927
#        31510
#        38159
#        41833
#        46915
#        50363
#        57793
#        62082
#        70719
#        77475
#        92238
#        102864
#        114207
#        129644
#        139911
#
# Disc length: 2071 seconds
#
# Revision: 0
# Processed by: cddbd v1.5.2PL0 Copyright (c) Steve Scherf et al.
# Submitted via: ExactAudioCopy v0.99pb5
#
DISCID=d9081512
DTITLE=Soundtrack - Welcome To The Rileys - Marc Streitenfeld
DYEAR=2010
DGENRE=Soundtrack
TTITLE0=Welcome To The Rileys
TTITLE1=Rebirth
TTITLE2=I am Here
TTITLE3=Walking In New Orleans
TTITLE4=Alive
TTITLE5=Trouble Sleeping
TTITLE6=Private Parts
TTITLE7=Headstone
TTITLE8=Time
TTITLE9=On The Road
TTITLE10=Nobody`s Little Girl
TTITLE11=Endtitle-Walking Reprise
TTITLE12=Going Up The Country-Kitty Daisy And Lewis
TTITLE13=Go Down Sunshine-Odetta
TTITLE14=Teenager`s Prayer-Joe Simon
TTITLE15=Le Disko-Shiny Toy Guns
TTITLE16=U.R.A. Fever-The Kills
TTITLE17=Jigglin-Ying Yang Twins
EXTD=
EXTT0=
EXTT1=
EXTT2=
EXTT3=
EXTT4=
EXTT5=
EXTT6=
EXTT7=
EXTT8=
EXTT9=
EXTT10=
EXTT11=
EXTT12=
EXTT13=
EXTT14=
EXTT15=
EXTT16=
EXTT17=
PLAYORDER=
